<?xml version="1.0" encoding="UTF-8"?>
<svg id="Layer_1" data-name="Layer 1" xmlns="http://www.w3.org/2000/svg" viewBox="0 0 2499.81 361.63">
  <defs>
    <style>
      .cls-1 {
        fill: #563ac9;
        stroke-width: 0px;
      }
    </style>
  </defs>
  <path class="cls-1" d="M2499.81,196.6c-1.34,3.27-3.85,3.96-7.21,3.96-41.16-.09-82.32-.06-123.49-.06q-3.93,0-3.43,3.71c2.7,19.94,18.95,35.78,39.01,38.07,11.71,1.34,23.11.5,33.76-5.06,6.7-3.5,12.47-8.27,17.74-13.67,3.44-3.52,5.09-3.62,9.01-.67,7.05,5.31,14.1,10.63,21.13,15.96,3.57,2.7,3.81,5.51.83,8.86-14.62,16.43-32.99,25.79-54.65,28.81-22.72,3.17-44.52.14-64.77-10.93-24.27-13.27-39.03-33.85-44.25-60.89-4.46-23.1-1.78-45.4,10.11-66.1,13.37-23.26,33.76-36.97,59.61-42.81,17.15-3.88,34.34-4,51.24,1.46,23.02,7.44,38.22,23.15,47.14,45.31,4.63,11.52,6.99,23.54,7.62,35.91.07,1.38.39,2.76.59,4.13v14ZM2365.47,167.86c1.22.08,2.28.21,3.35.21,27.9.01,55.8,0,83.7,0,.5,0,1-.03,1.5-.01,1.51.06,2.11-.66,1.93-2.15-.2-1.65-.27-3.32-.5-4.96-1.64-11.38-6.41-21.06-16.2-27.5-13.47-8.85-28.3-9.52-43.39-5.62-18.66,4.82-28.85,23.12-30.38,40.03Z"/>
  <path class="cls-1" d="M180.85,361.63C83.02,362.22-.02,282.6,0,180.8.02,79.74,82.45-.58,182.02,0c98.82.58,179.98,81.24,179.73,181.34-.24,100.35-82.3,180.88-180.9,180.29ZM33.71,199.58c.47,77.79,62.4,140.43,140.42,140.5,78.05.07,140.44-62.53,140.55-140.24.11-78.04-62.61-140.61-140.42-140.62-77.52-.01-139.99,62.22-140.55,140.36Z"/>
  <path class="cls-1" d="M1628.72,123.71c.06-.86.18-1.72.18-2.58.02-7,.07-14-.03-21-.03-1.97.59-2.6,2.55-2.59,12.08.07,24.16.07,36.25,0,1.96-.01,2.53.61,2.53,2.59-.06,54.91.16,109.83-.19,164.74-.11,16.88-3.3,33.42-10.64,48.86-11.09,23.31-29.92,37.11-54.41,43.67-13.93,3.73-28.18,4.49-42.56,3.77-14.77-.74-29.26-2.95-43.29-7.69-13.12-4.43-24.63-11.61-35.26-20.9,8.69-11.84,17.34-23.62,26.1-35.54,3.22,2.6,6.24,5.18,9.41,7.55,10.86,8.13,22.63,14.29,36.23,16.39,12.9,1.99,25.73,1.93,38.26-2.05,17.14-5.44,26.92-17.47,30.67-34.86,2.36-10.95,1.97-22.01,1.96-33.07,0-.3-.15-.59-.29-1.15-.56.38-1.03.55-1.29.89-10.18,13.16-24.17,20.01-40.01,22.99-26.36,4.97-50.63-.2-71.96-16.92-16.27-12.76-25.99-29.71-30.12-49.78-4.87-23.68-2.79-46.83,8.14-68.54,12.74-25.32,33.6-40.08,61.68-44.29,16.34-2.44,32.32-1.04,47.7,5.45,10.76,4.55,19.28,11.71,25.66,21.47.62.94,1.29,1.85,1.94,2.77.27-.06.54-.13.81-.19ZM1575.17,132.36c-1.54.12-4.63.19-7.67.63-11.73,1.71-22,6.46-30.05,15.32-9.75,10.71-13.59,23.62-13.27,37.87.36,16.23,6.91,29.55,19.82,39.35,14.85,11.26,31.59,13.43,49.21,8.27,15.37-4.5,26.36-14.2,32.04-29.39,3.94-10.53,4.45-21.38,2.38-32.4-1.95-10.37-6.55-19.33-14.26-26.58-10.3-9.68-22.92-12.98-38.2-13.07Z"/>
  <path class="cls-1" d="M567.22,109.55c5.47-3.98,10-7.66,14.91-10.75,10.03-6.31,21.18-9.35,32.91-10.68,13.08-1.49,25.85-.58,38.4,3.54,11.08,3.64,20.16,10.07,28.55,18.15,8.18,7.89,13.74,17,17.32,27.57,3.02,8.93,3.98,18.17,4.02,27.52.15,33.99.23,67.97.32,101.96,0,2.66-.93,3.57-3.63,3.58-12.41.02-24.83-.02-37.24.03-2.24,0-3.55-.86-3.61-3.11-.06-2.15.11-4.31.11-6.46,0-29.75.06-59.49-.04-89.24-.02-5.55-.02-11.23-1.1-16.63-2.61-13.01-11.23-20.41-23.95-23.05-12.61-2.62-24.29-.37-33.97,8.47-7.53,6.88-10.83,15.75-10.14,26.02.13,1.91.08,3.83.08,5.75.02,31,.04,61.99.05,92.99,0,4.93-.33,5.25-5.24,5.25-11.75,0-23.5,0-35.24,0-3.42,0-4.25-.82-4.22-4.3.07-10.07.25-20.15.26-30.22.01-6.99-.27-13.98-.25-20.98.04-16.57.28-33.15.2-49.72-.02-4.12-.49-8.34-1.51-12.32-2.26-8.85-7.82-15.29-16.3-18.65-14.58-5.78-28.43-4.41-40.72,5.82-6.42,5.34-9.62,12.65-10.5,20.9-.4,3.8-.51,7.64-.51,11.46-.04,31.33-.02,62.66-.02,93.99,0,3.67-.34,4.01-3.96,4.02-11.91.01-23.83.02-35.74.02-3.72,0-4.17-.42-4.16-4.19.03-18.25.09-36.49.12-54.74.03-16.99-.51-34.01.17-50.98,1.15-28.69,14.83-50.04,39.93-63.93,11.22-6.21,23.54-8.39,36.22-9.06,16.65-.89,32.24,2.59,46.53,11.21,3.31,2,6.19,4.75,9.13,7.3,1.17,1.02,2,2.44,2.83,3.48Z"/>
  <path class="cls-1" d="M822.49,277.69c-23.33-.18-44.73-6.33-63.02-21.24-17.13-13.97-27.41-32.13-31.03-53.93-3.09-18.6-1.71-36.84,5.79-54.29,10.79-25.11,29.42-41.91,55.46-49.96,29.42-9.09,58.14-6.99,85.02,8.55,23.49,13.58,37.31,34.45,41.94,61.12,3.89,22.39,1.12,43.94-10.24,63.95-13.15,23.15-33.32,36.97-58.93,42.92-8.12,1.88-16.56,2.41-24.85,3.55l-.12-.67ZM822.55,132.42c-29.38,0-51.72,22.62-51.94,52.16-.22,30.6,21.93,53.99,52.01,53.96,30.3-.02,51.88-23.67,51.9-53.04.02-31.77-24.33-53.78-51.98-53.09Z"/>
  <path class="cls-1" d="M2096.64,277.69c-23.6-.19-45.21-6.46-63.59-21.71-17.07-14.17-27.28-32.49-30.6-54.44-2.6-17.2-1.67-34.22,4.79-50.56,10.29-26.05,28.83-43.77,55.44-52.32,30.31-9.74,59.89-7.52,87.48,8.96,22.46,13.41,35.82,33.72,40.45,59.38,4,22.13,1.65,43.6-9.35,63.61-13.15,23.93-33.6,38.23-59.9,44.25-8.05,1.84-16.4,2.37-24.61,3.5-.04-.22-.08-.44-.12-.66ZM2044.51,185.5c.37,3.13.63,6.28,1.13,9.4,5.52,34.53,39.76,51.96,70.75,39.93,30.88-12,39.99-48.6,26.07-75.36-11.56-22.22-35.91-31.71-60.41-25.16-22.33,5.96-37.33,26.83-37.53,51.2Z"/>
  <path class="cls-1" d="M1161.96,215.74c0-16.75.05-33.49-.02-50.24-.04-7.76-1.88-15.01-7.06-21.08-4.79-5.62-11.03-8.71-18.16-10.15-9.34-1.89-18.45-1.08-26.96,3.29-12.44,6.4-17.99,17.18-18.06,30.79-.15,32.74-.05,65.49-.05,98.23q0,5.37-5.36,5.37c-11.75,0-23.49,0-35.24,0-3.33,0-4.06-.73-4.06-4.14,0-16.75-.06-33.49.01-50.24.08-18.57-.11-37.15.51-55.71.75-22.52,10.63-40.75,28.08-54.83,11.15-8.99,24.04-13.96,38.21-15.87,13.77-1.85,27.36-1.62,40.72,2.55,10.97,3.42,20.31,9.19,28.93,17.01,11.45,10.39,18.59,22.8,21.35,37.67,1.43,7.71,1.86,15.7,1.94,23.57.3,31.57.28,63.14.38,94.71.01,4.79-.51,5.29-5.24,5.29-12,0-23.99,0-35.99,0-3.24,0-3.92-.69-3.93-3.96,0-17.41,0-34.83,0-52.24Z"/>
  <path class="cls-1" d="M1300.46,215.67c0-16.08.17-32.16-.04-48.24-.48-36.42,24.52-66.07,57.43-73.8,23.22-5.45,45.82-4.1,66.8,8.32,4.66,2.76,8.52,6.86,12.7,10.4,13.71,11.57,20.01,26.86,21.8,44.26.67,6.52.93,13.12.95,19.68.11,30.41.08,60.82.09,91.24,0,4.87-.24,5.11-5.05,5.11-11.83,0-23.66.01-35.49,0-4.08,0-4.39-.32-4.38-4.45.03-13.75.12-27.49.11-41.24,0-19.5,0-38.99-.19-58.49-.04-4.2-.49-8.51-1.55-12.57-2.42-9.36-8.54-15.75-17.56-19.03-13.73-5-26.89-3.8-38.77,5.08-7.71,5.76-11.47,13.91-12.15,23.4-.41,5.72-.46,11.48-.46,17.22-.04,28.83-.05,57.66.03,86.49,0,2.5-.56,3.72-3.31,3.55-2.9-.19-5.83-.09-8.74-.08-9.5.03-18.99.1-28.49.11-3.4,0-3.8-.43-3.8-3.71,0-17.75,0-35.49,0-53.24.02,0,.03,0,.05,0Z"/>
  <path class="cls-1" d="M1757.25,277.65c-18.13-.03-33.17-2.23-47.35-8.73-7.34-3.37-13.7-8.21-19.43-13.86-2.7-2.67-2.72-5.45,0-8.05,7-6.66,14.05-13.26,21.14-19.83,2.41-2.24,5.11-2.09,7.53.22,6.17,5.89,12.51,11.66,20.66,14.6,12.74,4.59,25.47,4.78,37.58-2.07,7.82-4.43,10.87-11.53,9.04-19.78-.96-4.32-3.56-7.42-7.31-9.66-7.47-4.48-15.79-6.51-24.12-8.5-9.76-2.34-19.61-4.36-29.25-7.13-7.55-2.17-14.38-6.04-20.36-11.31-8.4-7.41-12.54-16.83-13.34-27.83-1.11-15.39,2.14-29.45,12.86-41.17,9.04-9.88,20.46-15.52,33.29-18.52,21.96-5.12,43.43-3.56,64.25,5.24,7.31,3.09,13.52,7.83,18.8,13.76,2.74,3.08,2.68,5.64-.39,8.43-6.77,6.17-13.59,12.29-20.43,18.39-2.82,2.51-5.54,2.37-8.09-.43-8.75-9.6-19.72-13.88-32.57-13.43-6.18.22-11.97,2.05-17.21,5.34-5.72,3.59-7.51,9.09-6.91,15.52.51,5.39,3.88,8.59,8.54,10.79,8.73,4.11,18.13,5.94,27.43,8.1,10.68,2.48,21.45,4.58,31.41,9.47,9.68,4.75,17.73,11.27,22.82,20.9,4.2,7.94,4.95,16.68,4.71,25.48-.32,11.77-3.92,22.32-11.88,31.27-8.49,9.55-19.29,15.15-31.35,18.56-10.7,3.03-21.67,4.32-30.12,4.23Z"/>
  <path class="cls-1" d="M1936.78,277.67c-24.98-.54-47.52-7.76-66.08-25.03-14.75-13.72-23.63-30.76-26.76-50.67-3.01-19.15-1.44-37.85,6.71-55.62,12.58-27.45,34.26-43.81,63.33-50.52,22.15-5.11,43.78-3.28,64.51,6.47,6.99,3.29,13.22,7.71,18.88,12.95,3.17,2.93,3.18,5.67.09,8.76-7.18,7.19-14.37,14.38-21.56,21.56-3.1,3.1-5.25,3.14-8.6.2-6.11-5.38-12.59-10.32-20.65-12.2-12.97-3.03-25.15-.44-36.3,6.6-14.5,9.16-22.11,22.67-23.75,39.58-1.65,17,2.97,32.04,15.19,44.21,8.99,8.96,20.01,13.68,32.82,14.39,13.18.74,24.58-2.99,34.14-12.18,2.29-2.2,5.38-2.14,7.55.17,7.24,7.71,14.44,15.45,21.59,23.25,2.3,2.51,1.87,5.5-.96,7.82-7.96,6.52-17.04,10.98-26.67,14.38-10.82,3.81-21.95,5.99-33.48,5.9Z"/>
  <path class="cls-1" d="M983.21,216.99c0,16.66,0,33.32,0,49.98,0,3.41-.09,3.52-3.52,3.52-12.24.02-24.49.02-36.73,0-2.94,0-3.48-.56-3.48-3.52,0-32.65-.06-65.3.05-97.95.05-16.05,2.87-31.48,11.95-45.14,12.18-18.32,28.98-29.62,51.04-32.09,8.49-.95,17.1-.72,25.66-1,2.13-.07,3.19.88,3.18,3.14-.04,11.91-.05,23.82.01,35.73.01,1.95-.8,2.31-2.55,2.33-5.48.05-11.02-.13-16.44.53-14.71,1.81-27.39,15.26-28.72,30.02-.27,2.98-.42,5.97-.42,8.96-.04,15.16-.02,30.32-.02,45.48Z"/>
  <path class="cls-1" d="M2257.7,217.6c0,16.58,0,33.16,0,49.74,0,4.15-.04,4.14-4.15,4.15-11.91.03-23.83.06-35.74.1-3.25.01-3.84-.52-3.84-3.68,0-33.58-.16-67.16.09-100.74.15-20.17,6.16-38.34,20.46-53.15,11.75-12.18,25.98-19.6,42.89-21.25,6.86-.67,13.8-.49,20.7-.7.67-.02,1.33.01,2-.01,5.73-.2,5.75-.2,5.73,5.64-.03,10.83-.16,21.66-.07,32.49.02,2.43-.87,2.8-3.01,2.86-6.14.16-12.4-.09-18.38,1.05-13.59,2.59-25.01,15.27-26.13,29.04-.75,9.11-.49,18.3-.57,27.45-.08,9-.02,18-.02,27h.05Z"/>
  <path class="cls-1" d="M1232.46,185.28c0-27.07,0-54.14,0-81.21,0-4.91,1.49-6.47,6.35-6.49,10.33-.03,20.66-.03,30.99,0,4.7.01,6.33,1.66,6.33,6.29,0,54.39,0,108.78,0,163.17,0,4.43-1.93,6.36-6.39,6.37-10.25.01-20.49.01-30.74,0-4.78,0-6.54-1.81-6.54-6.67,0-27.15,0-54.31,0-81.46Z"/>
  <path class="cls-1" d="M1253.88,63.96c-13.6-.35-24.22-8.49-27.09-21.02-3.19-13.97,6.88-28.9,21.08-31.15,10.57-1.67,20.05.48,27.72,8.35,11.59,11.89,8.96,35.84-12.42,42.26-2.99.9-6.19,1.06-9.3,1.56Z"/>
  <path class="cls-1" d="M278.84,192.09c.42,41.74-34.46,77.83-78.78,76.9-41.99-.88-76.12-36.22-75.27-78.74.78-38.99,32.63-76.05,78.37-75.39,43.43.62,76.2,36.41,75.69,77.24Z"/>
</svg>