<?xml version="1.0" encoding="UTF-8"?>
<svg id="Layer_1" data-name="Layer 1" xmlns="http://www.w3.org/2000/svg" viewBox="0 0 393.4 393.35">
  <defs>
    <style>
      .cls-1 {
        fill: #563ac9;
        stroke-width: 1px;
      }
    </style>
  </defs>
  <path class="cls-1" d="M196.61,393.35C87.31,393.37-.8,304.08,0,195.12.79,89.1,86.61-.02,196.79,0c110.88.02,197.91,90.79,196.6,199.1-1.29,106.67-88.21,194.32-196.78,194.25ZM189.45,64.41c-85.15.17-152.22,69.21-152.61,151.89-.39,83.91,67.28,152.54,151.05,153.42,83.9.88,154.22-66.64,154.24-152.65.01-84.88-68.72-152.6-152.68-152.67Z"/>
  <path class="cls-1" d="M303.39,208.69c-.25,47.85-39.08,83.86-83.89,83.85-45.41-.02-83.83-36.75-83.83-83.86,0-46.89,38.2-83.92,84.02-83.84,44.99.08,83.47,36.28,83.7,83.86Z"/>
</svg>